<svg width="500" height="500" viewBox="0 0 500 500" fill="none" xmlns="http://www.w3.org/2000/svg">
<rect width="500" height="500" fill="white"/>
<path d="M32.3062 352.912C34.2202 352.98 36.214 353.015 38.2876 353.015C39.2674 353.015 40.2017 352.992 41.0903 352.946C41.979 352.901 42.4347 352.878 42.4575 352.878C43.0728 352.878 43.6367 352.895 44.1494 352.929C44.6735 352.952 45.2603 353.009 45.9097 353.1C46.5705 353.191 47.1572 353.317 47.6699 353.476C48.1826 353.636 48.6953 353.858 49.208 354.143C49.7321 354.427 50.165 354.764 50.5068 355.151C50.86 355.538 51.1449 356.017 51.3613 356.586C51.5778 357.156 51.686 357.794 51.686 358.5C51.686 360.585 50.4385 362.152 47.9434 363.2V363.337C49.8118 363.679 51.3727 364.453 52.626 365.661C53.8906 366.869 54.5229 368.413 54.5229 370.292C54.5229 371.295 54.3407 372.201 53.9761 373.01C53.6229 373.807 53.1672 374.468 52.6089 374.992C52.0506 375.516 51.3499 375.972 50.5068 376.359C49.6637 376.747 48.8434 377.043 48.0459 377.248C47.2484 377.453 46.3312 377.618 45.2944 377.744C44.269 377.858 43.3918 377.932 42.6626 377.966C41.9334 377.989 41.1188 378 40.2188 378C37.1312 378 34.4823 378.034 32.272 378.103C32.2264 377.966 32.2036 377.852 32.2036 377.761C32.2036 377.681 32.2264 377.527 32.272 377.299C32.6138 377.265 32.8872 377.237 33.0923 377.214C33.2974 377.191 33.5765 377.151 33.9297 377.094C34.2943 377.037 34.5848 376.975 34.8013 376.906C35.0291 376.826 35.2627 376.73 35.502 376.616C35.7412 376.502 35.9178 376.365 36.0317 376.206C36.1571 376.046 36.2197 375.864 36.2197 375.659C36.3564 372.093 36.4248 368.498 36.4248 364.875C36.4248 361.184 36.3678 357.999 36.2539 355.322C36.2425 355.026 36.1115 354.775 35.8608 354.57C35.6216 354.365 35.257 354.205 34.7671 354.091C34.2772 353.977 33.8841 353.903 33.5879 353.869C33.2917 353.824 32.8644 353.772 32.3062 353.715C32.2606 353.51 32.2378 353.368 32.2378 353.288C32.2378 353.22 32.2606 353.094 32.3062 352.912ZM40.0308 364.875V366.14L40.2188 376.838C40.9821 376.838 41.66 376.826 42.2524 376.804C42.8449 376.77 43.4943 376.701 44.2007 376.599C44.9071 376.485 45.5223 376.337 46.0464 376.154C46.5705 375.972 47.0946 375.721 47.6187 375.402C48.1427 375.072 48.57 374.685 48.9004 374.24C49.2308 373.796 49.4985 373.249 49.7036 372.6C49.9087 371.939 50.0112 371.198 50.0112 370.378C50.0112 369.58 49.8802 368.868 49.6182 368.242C49.3561 367.604 48.9858 367.074 48.5073 366.652C48.0402 366.219 47.4648 365.861 46.7812 365.576C46.109 365.291 45.3742 365.086 44.5767 364.96C43.7905 364.835 42.9303 364.772 41.9961 364.772C41.3467 364.772 40.6916 364.807 40.0308 364.875ZM40.2529 354.091L40.0308 363.833C44.6792 363.833 47.0034 362.055 47.0034 358.5C47.0034 356.951 46.5192 355.812 45.5508 355.083C44.5938 354.353 43.3177 353.989 41.7227 353.989C41.3695 353.989 40.8796 354.023 40.2529 354.091ZM56.3929 356.467C58.5804 356.545 60.2796 356.584 61.4905 356.584C62.7015 356.584 64.4007 356.545 66.5882 356.467C66.6272 356.623 66.6468 356.73 66.6468 356.789C66.6468 356.857 66.6272 356.979 66.5882 357.155C66.139 357.194 65.7728 357.238 65.4896 357.287C65.2161 357.326 64.8743 357.395 64.4642 357.492C64.0638 357.59 63.7562 357.731 63.5413 357.917C63.3265 358.093 63.2142 358.308 63.2044 358.562C63.0774 361.882 63.014 364.973 63.014 367.834C63.014 369.309 63.0677 372.399 63.1751 377.106H67.7015C69.137 377.009 70.4212 376.799 71.554 376.477C72.6868 376.154 73.6292 375.744 74.3812 375.246C75.1429 374.738 75.7679 374.216 76.2562 373.679C76.7542 373.132 77.1839 372.521 77.5452 371.848C77.7991 371.945 77.9651 372.077 78.0433 372.243C77.6429 372.985 77.3304 373.586 77.1058 374.045C76.8909 374.504 76.6517 375.109 76.388 375.861C76.1341 376.604 75.9681 377.316 75.8899 378H63.1751C60.5286 378 58.2581 378.029 56.3636 378.088C56.3245 377.971 56.305 377.873 56.305 377.795C56.305 377.727 56.3245 377.595 56.3636 377.399C56.8128 377.36 57.1741 377.321 57.4476 377.282C57.7308 377.233 58.0726 377.16 58.4729 377.062C58.8831 376.965 59.1956 376.828 59.4104 376.652C59.6253 376.467 59.7376 376.247 59.7474 375.993C59.8646 372.937 59.9231 369.855 59.9231 366.75C59.9231 363.586 59.8743 360.856 59.7767 358.562C59.7669 358.308 59.6546 358.093 59.4397 357.917C59.2249 357.731 58.9124 357.59 58.5022 357.492C58.1019 357.395 57.7601 357.326 57.4769 357.287C57.2034 357.238 56.8421 357.194 56.3929 357.155C56.3538 356.979 56.3343 356.857 56.3343 356.789C56.3343 356.691 56.3538 356.584 56.3929 356.467ZM89.3454 356.247C89.4919 356.14 89.6481 356.071 89.8142 356.042L97.8269 376.052C97.9245 376.296 98.0856 376.506 98.3103 376.682C98.5349 376.848 98.8132 376.979 99.1452 377.077C99.487 377.165 99.78 377.233 100.024 377.282C100.278 377.321 100.586 377.36 100.947 377.399C100.986 377.556 101.006 377.688 101.006 377.795C101.006 377.912 100.986 378.02 100.947 378.117C98.8376 378.039 97.2605 378 96.2155 378C95.0827 378 93.4421 378.039 91.2937 378.117C91.2546 378 91.2351 377.883 91.2351 377.766C91.2351 377.639 91.2546 377.517 91.2937 377.399C93.2663 377.185 94.2526 376.813 94.2526 376.286C94.2526 376.12 94.2331 375.949 94.194 375.773L92.07 370.324C91.4255 370.305 90.5564 370.295 89.4626 370.295C88.945 370.295 87.6022 370.314 85.4343 370.354L83.1931 376.052V376.228C83.1931 376.325 83.2077 376.418 83.237 376.506C83.2761 376.594 83.3347 376.672 83.4128 376.74C83.5007 376.809 83.5837 376.867 83.6618 376.916C83.7399 376.965 83.8474 377.014 83.9841 377.062C84.1306 377.102 84.2526 377.136 84.3503 377.165C84.4577 377.185 84.5993 377.209 84.7751 377.238C84.9606 377.268 85.1022 377.292 85.1999 377.312C85.2976 377.321 85.4392 377.336 85.6247 377.355C85.82 377.375 85.9567 377.39 86.0349 377.399C86.0739 377.556 86.0935 377.688 86.0935 377.795C86.0935 377.854 86.0739 377.961 86.0349 378.117C83.8474 378.039 82.6169 378 82.3435 378C81.8161 378 80.4587 378.039 78.2712 378.117C78.2321 378 78.2126 377.883 78.2126 377.766C78.2126 377.639 78.2321 377.517 78.2712 377.399C80.3024 377.165 81.4597 376.667 81.7429 375.905L88.0417 360.026L87.7194 359.162C88.2761 358.791 88.6618 358.391 88.8767 357.961C89.1013 357.531 89.2575 356.96 89.3454 356.247ZM89.4626 369.152C90.361 369.152 91.069 369.143 91.5866 369.123L88.8034 361.916H88.7448L85.947 369.094C86.8649 369.133 88.0368 369.152 89.4626 369.152ZM113.758 355.983C114.529 355.983 115.296 356.037 116.058 356.145C116.829 356.242 117.567 356.364 118.27 356.511C118.983 356.647 119.656 356.784 120.291 356.921C120.926 357.058 121.497 357.155 122.005 357.214C121.888 357.565 121.829 358.186 121.829 359.074C121.829 360.803 122.088 362.302 122.606 363.571C122.547 363.747 122.366 363.854 122.064 363.894L121.434 362.546C121.121 361.872 120.745 361.208 120.306 360.554C119.866 359.89 119.339 359.299 118.724 358.781C118.108 358.254 117.391 357.829 116.57 357.507C115.76 357.185 114.822 357.023 113.758 357.023C112.84 357.023 112.025 357.175 111.312 357.478C110.599 357.78 109.974 358.19 109.437 358.708C108.9 359.216 108.445 359.812 108.074 360.495C107.703 361.169 107.4 361.887 107.166 362.648C106.942 363.41 106.775 364.191 106.668 364.992C106.57 365.793 106.522 366.569 106.522 367.321C106.522 368.571 106.683 369.768 107.005 370.91C107.337 372.053 107.85 373.063 108.543 373.942C109.236 374.812 110.115 375.505 111.18 376.022C112.254 376.54 113.533 376.799 115.018 376.799C117.859 376.799 120.008 375.91 121.463 374.133C121.619 374.133 121.746 374.177 121.844 374.265C121.951 374.353 122.005 374.46 122.005 374.587C121.536 375.28 120.965 375.881 120.291 376.389C119.627 376.896 118.919 377.316 118.167 377.648C117.415 377.971 116.653 378.21 115.882 378.366C115.12 378.522 114.412 378.601 113.758 378.601C113.045 378.601 112.274 378.522 111.443 378.366C110.623 378.22 109.798 377.971 108.968 377.619C108.148 377.268 107.357 376.809 106.595 376.242C105.843 375.666 105.174 374.963 104.588 374.133C104.002 373.293 103.533 372.312 103.182 371.188C102.83 370.065 102.654 368.776 102.654 367.321C102.654 365.856 102.83 364.562 103.182 363.439C103.533 362.307 104.002 361.32 104.588 360.48C105.184 359.641 105.862 358.938 106.624 358.371C107.396 357.795 108.192 357.331 109.012 356.979C109.832 356.618 110.652 356.364 111.473 356.218C112.293 356.062 113.055 355.983 113.758 355.983ZM123.683 356.467C125.871 356.545 127.57 356.584 128.781 356.584C129.992 356.584 131.691 356.545 133.878 356.467C133.917 356.623 133.937 356.73 133.937 356.789C133.937 356.896 133.917 357.019 133.878 357.155C133.429 357.194 133.063 357.238 132.78 357.287C132.506 357.326 132.165 357.395 131.754 357.492C131.354 357.59 131.046 357.731 130.832 357.917C130.617 358.093 130.504 358.308 130.495 358.562C130.368 361.452 130.304 364.123 130.304 366.574H130.729L139.035 358.562C139.162 358.376 139.225 358.234 139.225 358.137C139.225 357.951 139.171 357.8 139.064 357.683C138.966 357.556 138.781 357.463 138.507 357.404C138.244 357.336 137.975 357.287 137.702 357.258C137.438 357.229 137.042 357.194 136.515 357.155C136.476 356.979 136.457 356.857 136.457 356.789C136.457 356.73 136.476 356.623 136.515 356.467C138.722 356.545 140.172 356.584 140.866 356.584C141.344 356.584 142.687 356.545 144.894 356.467C144.933 356.623 144.953 356.73 144.953 356.789C144.953 356.857 144.933 356.979 144.894 357.155C144.474 357.194 144.137 357.233 143.883 357.272C143.639 357.312 143.322 357.38 142.931 357.478C142.55 357.565 142.184 357.702 141.833 357.888C141.491 358.063 141.159 358.288 140.836 358.562L133.278 365.754L142.58 375.217C144.142 376.613 145.514 377.341 146.696 377.399C146.735 377.556 146.754 377.688 146.754 377.795C146.754 377.912 146.735 378.02 146.696 378.117C145.28 378.039 143.717 378 142.008 378C140.475 378 138.625 378.039 136.457 378.117C136.417 378 136.398 377.883 136.398 377.766C136.398 377.639 136.417 377.517 136.457 377.399C137.404 377.37 138.029 377.287 138.332 377.15C138.644 377.004 138.8 376.755 138.8 376.403C138.8 376.276 138.766 376.154 138.698 376.037C138.629 375.92 138.507 375.769 138.332 375.583C138.166 375.388 138.063 375.266 138.024 375.217L130.875 367.805L130.304 367.834C130.304 369.924 130.358 372.644 130.465 375.993C130.475 376.247 130.587 376.467 130.802 376.652C131.017 376.828 131.325 376.965 131.725 377.062C132.135 377.16 132.477 377.233 132.75 377.282C133.034 377.321 133.4 377.36 133.849 377.399C133.888 377.517 133.908 377.648 133.908 377.795C133.908 377.873 133.888 377.971 133.849 378.088C132.189 378.029 130.49 378 128.751 378C126.994 378 125.294 378.029 123.654 378.088C123.615 377.971 123.595 377.873 123.595 377.795C123.595 377.629 123.615 377.497 123.654 377.399C123.947 377.37 124.181 377.346 124.357 377.326C124.533 377.307 124.772 377.272 125.075 377.224C125.387 377.175 125.636 377.121 125.822 377.062C126.017 376.994 126.217 376.911 126.422 376.813C126.627 376.716 126.779 376.599 126.876 376.462C126.984 376.325 127.038 376.169 127.038 375.993C127.155 372.937 127.213 369.855 127.213 366.75C127.213 363.586 127.165 360.856 127.067 358.562C127.057 358.308 126.945 358.093 126.73 357.917C126.515 357.731 126.203 357.59 125.792 357.492C125.392 357.395 125.05 357.326 124.767 357.287C124.494 357.238 124.132 357.194 123.683 357.155C123.644 356.979 123.625 356.857 123.625 356.789C123.625 356.691 123.644 356.584 123.683 356.467ZM170.272 360.107C169.839 358.022 169.041 356.404 167.879 355.253C166.728 354.103 165.344 353.527 163.726 353.527C162.143 353.527 160.912 353.903 160.035 354.655C159.169 355.407 158.736 356.41 158.736 357.663C158.736 358.358 158.799 358.933 158.924 359.389C159.049 359.845 159.306 360.289 159.693 360.722C160.081 361.144 160.644 361.52 161.385 361.85C162.126 362.169 163.094 362.477 164.29 362.773C164.94 362.932 165.504 363.081 165.982 363.217C166.472 363.354 167.008 363.542 167.589 363.781C168.181 364.021 168.688 364.277 169.11 364.55C169.543 364.824 169.97 365.166 170.391 365.576C170.824 365.974 171.172 366.419 171.434 366.909C171.707 367.399 171.924 367.98 172.083 368.652C172.254 369.313 172.34 370.036 172.34 370.822C172.34 371.87 172.146 372.839 171.759 373.728C171.371 374.605 170.864 375.345 170.238 375.949C169.611 376.553 168.887 377.066 168.067 377.487C167.247 377.909 166.415 378.216 165.572 378.41C164.729 378.604 163.892 378.701 163.06 378.701C160.531 378.701 157.836 378.046 154.976 376.735C155.033 375.505 155.062 374.747 155.062 374.462C155.062 372.605 154.908 370.754 154.6 368.908C154.726 368.828 154.851 368.789 154.976 368.789C155.136 368.789 155.278 368.828 155.404 368.908C155.643 370.378 156.036 371.677 156.583 372.805C157.141 373.933 157.779 374.827 158.497 375.488C159.215 376.137 159.955 376.627 160.719 376.958C161.493 377.277 162.274 377.436 163.06 377.436C164.849 377.436 166.221 376.975 167.179 376.052C168.147 375.118 168.631 373.887 168.631 372.36C168.631 370.822 168.272 369.666 167.554 368.891C166.848 368.105 165.492 367.467 163.487 366.977C160.981 366.35 159.021 365.428 157.608 364.208C156.207 362.978 155.506 361.354 155.506 359.338C155.506 358.278 155.677 357.333 156.019 356.501C156.372 355.658 156.822 354.986 157.369 354.484C157.927 353.972 158.577 353.55 159.317 353.22C160.058 352.878 160.787 352.644 161.505 352.519C162.234 352.382 162.974 352.314 163.726 352.314C165.982 352.314 168.329 352.838 170.767 353.886C170.699 354.558 170.665 355.259 170.665 355.988C170.665 357.697 170.802 359.07 171.075 360.107C170.927 360.164 170.802 360.192 170.699 360.192C170.585 360.192 170.443 360.164 170.272 360.107ZM173.45 356.467C175.54 356.545 177.181 356.584 178.372 356.584C179.515 356.584 180.775 356.545 182.151 356.467C182.191 356.623 182.21 356.73 182.21 356.789C182.21 356.896 182.191 357.019 182.151 357.155C181.302 357.194 180.716 357.302 180.394 357.478C180.081 357.644 179.925 357.863 179.925 358.137C179.925 358.215 179.935 358.308 179.954 358.415C179.983 358.513 181.966 363.41 185.901 373.107H186.048L188.904 365.49L186.326 358.957C185.916 357.902 184.935 357.302 183.382 357.155C183.343 356.979 183.323 356.857 183.323 356.789C183.323 356.691 183.343 356.584 183.382 356.467C184.759 356.545 186.287 356.584 187.967 356.584C189.51 356.584 190.97 356.545 192.347 356.467C192.386 356.623 192.405 356.73 192.405 356.789C192.405 356.896 192.386 357.019 192.347 357.155C191.165 357.194 190.399 357.287 190.047 357.434C189.705 357.57 189.534 357.834 189.534 358.225C189.534 358.234 189.603 358.479 189.739 358.957L195.145 373.107H195.291L200.638 358.767C200.696 358.62 200.726 358.43 200.726 358.195C200.726 357.883 200.535 357.658 200.154 357.521C199.774 357.375 199.153 357.253 198.294 357.155C198.255 356.94 198.235 356.809 198.235 356.76C198.235 356.682 198.255 356.584 198.294 356.467C199.495 356.525 200.643 356.555 201.736 356.555C202.801 356.555 203.851 356.525 204.886 356.467C204.925 356.584 204.944 356.682 204.944 356.76C204.944 356.916 204.925 357.048 204.886 357.155C204.192 357.224 203.616 357.37 203.157 357.595C202.708 357.819 202.357 358.21 202.103 358.767L194.661 378.425H194.002L189.593 367.263L185.418 378.425H184.759L176.717 358.957C176.287 357.922 175.198 357.321 173.45 357.155C173.411 356.979 173.392 356.857 173.392 356.789C173.392 356.691 173.411 356.584 173.45 356.467ZM215.485 356.247C215.631 356.14 215.788 356.071 215.954 356.042L223.966 376.052C224.064 376.296 224.225 376.506 224.45 376.682C224.674 376.848 224.953 376.979 225.285 377.077C225.626 377.165 225.919 377.233 226.164 377.282C226.417 377.321 226.725 377.36 227.086 377.399C227.125 377.556 227.145 377.688 227.145 377.795C227.145 377.912 227.125 378.02 227.086 378.117C224.977 378.039 223.4 378 222.355 378C221.222 378 219.582 378.039 217.433 378.117C217.394 378 217.375 377.883 217.375 377.766C217.375 377.639 217.394 377.517 217.433 377.399C219.406 377.185 220.392 376.813 220.392 376.286C220.392 376.12 220.373 375.949 220.333 375.773L218.209 370.324C217.565 370.305 216.696 370.295 215.602 370.295C215.084 370.295 213.742 370.314 211.574 370.354L209.333 376.052V376.228C209.333 376.325 209.347 376.418 209.376 376.506C209.416 376.594 209.474 376.672 209.552 376.74C209.64 376.809 209.723 376.867 209.801 376.916C209.879 376.965 209.987 377.014 210.124 377.062C210.27 377.102 210.392 377.136 210.49 377.165C210.597 377.185 210.739 377.209 210.915 377.238C211.1 377.268 211.242 377.292 211.339 377.312C211.437 377.321 211.579 377.336 211.764 377.355C211.959 377.375 212.096 377.39 212.174 377.399C212.213 377.556 212.233 377.688 212.233 377.795C212.233 377.854 212.213 377.961 212.174 378.117C209.987 378.039 208.756 378 208.483 378C207.956 378 206.598 378.039 204.411 378.117C204.372 378 204.352 377.883 204.352 377.766C204.352 377.639 204.372 377.517 204.411 377.399C206.442 377.165 207.599 376.667 207.882 375.905L214.181 360.026L213.859 359.162C214.416 358.791 214.801 358.391 215.016 357.961C215.241 357.531 215.397 356.96 215.485 356.247ZM215.602 369.152C216.5 369.152 217.208 369.143 217.726 369.123L214.943 361.916H214.884L212.086 369.094C213.004 369.133 214.176 369.152 215.602 369.152ZM227.988 356.467C229.59 356.545 231.611 356.584 234.053 356.584C240.957 365.236 244.668 369.846 245.185 370.412C245.703 370.969 245.962 371.247 245.962 371.247H246.079C246.118 369.372 246.138 367.863 246.138 366.721C246.138 364.465 246.089 361.813 245.991 358.767C245.972 357.888 244.888 357.351 242.739 357.155C242.7 356.94 242.681 356.809 242.681 356.76C242.681 356.682 242.7 356.584 242.739 356.467C244.311 356.525 245.703 356.555 246.914 356.555C247.695 356.555 249.004 356.525 250.84 356.467C250.879 356.584 250.898 356.682 250.898 356.76C250.898 356.916 250.879 357.048 250.84 357.155C248.701 357.351 247.622 357.888 247.602 358.767C247.485 361.823 247.427 364.836 247.427 367.805C247.427 372.346 247.475 375.764 247.573 378.059L247.309 378.088L232.749 360.173H232.602C232.544 362.702 232.515 365.256 232.515 367.834C232.515 370.1 232.563 372.746 232.661 375.773C232.681 376.662 233.76 377.204 235.898 377.399C235.947 377.565 235.972 377.697 235.972 377.795C235.972 377.893 235.947 377.99 235.898 378.088C234.346 378.029 232.959 378 231.738 378C230.957 378 229.648 378.029 227.812 378.088C227.764 377.99 227.739 377.893 227.739 377.795C227.739 377.629 227.764 377.497 227.812 377.399C229.971 377.194 231.05 376.652 231.05 375.773C231.167 372.727 231.225 369.719 231.225 366.75C231.225 363.527 231.186 360.729 231.108 358.356C230.288 357.644 229.248 357.243 227.988 357.155C227.93 357.028 227.9 356.916 227.9 356.818C227.9 356.672 227.93 356.555 227.988 356.467ZM262.311 372.719L265.114 371.352C265.82 371.01 266.407 370.634 266.874 370.224C267.353 369.803 267.712 369.364 267.951 368.908C268.202 368.452 268.372 368.037 268.464 367.661C268.566 367.273 268.617 366.766 268.617 366.14C268.617 365.388 268.333 364.727 267.763 364.157C267.193 363.588 266.464 363.303 265.575 363.303C264.379 363.303 263.485 363.57 262.892 364.106C262.3 364.641 262.004 365.342 262.004 366.208C262.004 367.359 262.226 368.27 262.67 368.942C262.522 369.204 262.3 369.353 262.004 369.387C260.739 368.578 260.107 367.41 260.107 365.883C260.107 364.516 260.631 363.4 261.679 362.534C262.727 361.668 264.248 361.235 266.242 361.235C268.11 361.235 269.609 361.628 270.737 362.414C271.864 363.189 272.428 364.408 272.428 366.071C272.428 367.188 272.001 368.219 271.147 369.165C270.292 370.11 269.25 370.771 268.019 371.147V371.318C268.691 371.375 269.318 371.523 269.899 371.762C270.492 371.99 271.056 372.332 271.591 372.788C272.126 373.232 272.548 373.847 272.856 374.633C273.175 375.419 273.334 376.331 273.334 377.368C273.334 378.621 273.055 379.806 272.497 380.922C271.938 382.05 271.226 382.985 270.361 383.725C269.495 384.466 268.543 385.047 267.507 385.468C266.481 385.901 265.484 386.118 264.516 386.118C263.661 386.118 262.881 386.015 262.174 385.81C261.48 385.605 260.916 385.343 260.483 385.024C260.05 384.716 259.685 384.363 259.389 383.964C259.093 383.566 258.888 383.19 258.774 382.836C258.66 382.483 258.603 382.153 258.603 381.845C258.603 381.15 258.813 380.581 259.235 380.136C259.657 379.692 260.181 379.47 260.807 379.47C261.548 379.47 262.135 379.658 262.568 380.034C263.001 380.421 263.217 381.002 263.217 381.777C263.217 382.301 263.035 382.745 262.67 383.11C262.317 383.486 261.964 383.719 261.611 383.811C261.611 383.936 261.707 384.09 261.901 384.272C262.095 384.454 262.419 384.625 262.875 384.785C263.342 384.956 263.878 385.041 264.482 385.041C265.974 385.041 267.182 384.38 268.105 383.059C269.028 381.737 269.489 379.994 269.489 377.829C269.489 376.94 269.369 376.177 269.13 375.539C268.902 374.89 268.577 374.4 268.156 374.069C267.746 373.739 267.313 373.5 266.857 373.352C266.413 373.203 265.923 373.129 265.387 373.129C264.613 373.129 263.73 373.329 262.738 373.728L262.311 372.719ZM276.11 356.467C278.297 356.545 280.045 356.584 281.354 356.584C283.795 356.506 285.294 356.467 285.851 356.467C286.759 356.467 287.614 356.506 288.415 356.584C289.215 356.662 290.041 356.809 290.89 357.023C291.75 357.229 292.526 357.502 293.219 357.844C293.913 358.176 294.577 358.62 295.211 359.177C295.846 359.733 296.378 360.378 296.808 361.11C297.238 361.843 297.58 362.727 297.833 363.762C298.087 364.787 298.214 365.925 298.214 367.175C298.136 368.376 297.926 369.479 297.584 370.485C297.252 371.491 296.823 372.36 296.295 373.093C295.778 373.825 295.163 374.479 294.45 375.056C293.737 375.632 292.99 376.101 292.208 376.462C291.437 376.823 290.597 377.121 289.689 377.355C288.791 377.59 287.912 377.756 287.052 377.854C286.203 377.951 285.324 378 284.416 378C280.753 378 277.975 378.029 276.081 378.088C276.042 377.971 276.022 377.873 276.022 377.795C276.022 377.727 276.042 377.595 276.081 377.399C276.374 377.37 276.608 377.346 276.784 377.326C276.959 377.307 277.199 377.272 277.501 377.224C277.814 377.175 278.063 377.121 278.249 377.062C278.444 376.994 278.644 376.911 278.849 376.813C279.054 376.716 279.206 376.599 279.303 376.462C279.411 376.325 279.464 376.169 279.464 375.993C279.582 372.937 279.64 369.855 279.64 366.75C279.64 363.586 279.591 360.856 279.494 358.562C279.484 358.308 279.372 358.093 279.157 357.917C278.942 357.731 278.629 357.59 278.219 357.492C277.819 357.395 277.477 357.326 277.194 357.287C276.92 357.238 276.559 357.194 276.11 357.155C276.071 356.979 276.051 356.857 276.051 356.789C276.051 356.73 276.071 356.623 276.11 356.467ZM282.921 358.562C282.794 361.882 282.731 364.973 282.731 367.834C282.731 369.416 282.785 372.443 282.892 376.916C283.312 376.936 283.913 376.945 284.694 376.945C286.276 376.945 287.682 376.706 288.913 376.228C290.143 375.739 291.154 375.061 291.945 374.191C292.736 373.322 293.332 372.297 293.732 371.115C294.142 369.924 294.347 368.61 294.347 367.175C294.347 366.433 294.289 365.705 294.171 364.992C294.054 364.279 293.869 363.552 293.615 362.81C293.361 362.067 293.009 361.384 292.56 360.759C292.111 360.134 291.574 359.577 290.949 359.089C290.333 358.591 289.572 358.205 288.664 357.932C287.765 357.648 286.769 357.507 285.675 357.507C284.669 357.507 283.751 357.57 282.921 357.697V358.562ZM311.539 366.413C311.539 365.593 311.482 361.839 311.368 355.151C311.334 354.889 311.197 354.667 310.958 354.484C310.73 354.291 310.394 354.143 309.95 354.04C309.505 353.938 309.141 353.863 308.856 353.818C308.582 353.772 308.195 353.727 307.694 353.681C307.648 353.476 307.625 353.334 307.625 353.254C307.625 353.186 307.648 353.06 307.694 352.878C307.99 352.889 308.696 352.918 309.813 352.963C310.929 352.998 311.79 353.015 312.393 353.015C312.906 353.015 313.874 352.992 315.299 352.946C316.723 352.901 317.748 352.878 318.375 352.878C321.291 352.878 323.519 353.556 325.057 354.912C326.595 356.267 327.364 358.073 327.364 360.329C327.364 362.471 326.675 364.22 325.296 365.576C323.918 366.931 321.958 367.609 319.417 367.609C317.891 367.609 316.518 367.29 315.299 366.652C315.299 369.432 315.333 372.434 315.401 375.659C315.413 375.955 315.544 376.211 315.794 376.428C316.045 376.633 316.404 376.792 316.871 376.906C317.349 377.02 317.748 377.106 318.067 377.163C318.398 377.208 318.825 377.254 319.349 377.299C319.395 377.527 319.417 377.681 319.417 377.761C319.417 377.852 319.395 377.966 319.349 378.103C317.412 378.034 315.43 378 313.402 378C311.351 378 309.368 378.034 307.454 378.103C307.409 377.966 307.386 377.852 307.386 377.761C307.386 377.567 307.409 377.413 307.454 377.299C307.978 377.254 308.4 377.208 308.719 377.163C309.049 377.106 309.448 377.02 309.915 376.906C310.394 376.792 310.758 376.633 311.009 376.428C311.26 376.211 311.391 375.955 311.402 375.659C311.493 372.731 311.539 369.649 311.539 366.413ZM315.401 354.057C315.333 358.159 315.299 361.975 315.299 365.507C316.233 365.929 317.161 366.14 318.084 366.14C319.691 366.14 320.898 365.621 321.707 364.584C322.516 363.548 322.921 362.118 322.921 360.295C322.921 356.091 320.841 353.989 316.683 353.989C316.421 353.989 315.994 354.012 315.401 354.057ZM328.704 356.467C330.814 356.545 332.513 356.584 333.802 356.584C334.29 356.584 335.076 356.564 336.16 356.525C337.244 356.486 338.079 356.467 338.665 356.467C340.833 356.467 342.537 357.014 343.777 358.107C345.027 359.201 345.652 360.622 345.652 362.37C345.652 363.776 345.237 365.036 344.407 366.149C343.577 367.253 342.444 368.044 341.009 368.522C341.663 369.694 342.562 371.022 343.704 372.507C344.808 373.981 345.858 375.139 346.854 375.979C347.859 376.818 348.939 377.292 350.091 377.399C350.13 377.556 350.15 377.678 350.15 377.766C350.15 377.863 350.13 377.971 350.091 378.088C349.505 378.059 348.88 378.039 348.216 378.029C347.552 378.02 346.81 378.015 345.989 378.015C345.179 378.015 344.554 378.01 344.114 378C341.487 374.943 339.378 371.936 337.786 368.977C337.073 368.977 336.253 368.864 335.325 368.64C335.325 370.534 335.379 372.985 335.486 375.993C335.496 376.247 335.608 376.467 335.823 376.652C336.038 376.828 336.346 376.965 336.746 377.062C337.156 377.16 337.498 377.233 337.772 377.282C338.055 377.321 338.421 377.36 338.87 377.399C338.909 377.595 338.929 377.727 338.929 377.795C338.929 377.873 338.909 377.971 338.87 378.088C337.21 378.029 335.511 378 333.773 378C332.015 378 330.316 378.029 328.675 378.088C328.636 377.971 328.616 377.873 328.616 377.795C328.616 377.629 328.636 377.497 328.675 377.399C328.968 377.37 329.202 377.346 329.378 377.326C329.554 377.307 329.793 377.272 330.096 377.224C330.408 377.175 330.657 377.121 330.843 377.062C331.038 376.994 331.238 376.911 331.443 376.813C331.649 376.716 331.8 376.599 331.898 376.462C332.005 376.325 332.059 376.169 332.059 375.993C332.176 372.937 332.234 369.855 332.234 366.75C332.234 363.586 332.186 360.856 332.088 358.562C332.078 358.308 331.966 358.093 331.751 357.917C331.536 357.731 331.224 357.59 330.814 357.492C330.413 357.395 330.071 357.326 329.788 357.287C329.515 357.238 329.153 357.194 328.704 357.155C328.665 356.979 328.646 356.857 328.646 356.789C328.646 356.73 328.665 356.623 328.704 356.467ZM335.516 357.478H335.486C335.379 361.081 335.325 364.431 335.325 367.526C336.009 367.751 336.702 367.863 337.405 367.863C338.05 367.863 338.626 367.756 339.134 367.541C339.651 367.316 340.076 367.023 340.408 366.662C340.74 366.301 341.014 365.876 341.229 365.388C341.453 364.899 341.609 364.406 341.697 363.908C341.795 363.41 341.844 362.897 341.844 362.37C341.844 360.915 341.443 359.729 340.643 358.811C339.852 357.883 338.724 357.419 337.259 357.419C336.536 357.419 335.955 357.438 335.516 357.478ZM350.539 356.467C352.726 356.545 354.425 356.584 355.636 356.584C356.847 356.584 358.546 356.545 360.734 356.467C360.773 356.623 360.792 356.73 360.792 356.789C360.792 356.896 360.773 357.019 360.734 357.155C360.285 357.194 359.918 357.238 359.635 357.287C359.362 357.326 359.02 357.395 358.61 357.492C358.209 357.59 357.902 357.731 357.687 357.917C357.472 358.093 357.36 358.308 357.35 358.562C357.223 361.882 357.16 364.973 357.16 367.834C357.16 369.924 357.213 372.644 357.321 375.993C357.331 376.247 357.443 376.467 357.658 376.652C357.873 376.828 358.18 376.965 358.581 377.062C358.991 377.16 359.333 377.233 359.606 377.282C359.889 377.321 360.255 377.36 360.705 377.399C360.744 377.517 360.763 377.648 360.763 377.795C360.763 377.873 360.744 377.971 360.705 378.088C359.044 378.029 357.345 378 355.607 378C353.849 378 352.15 378.029 350.509 378.088C350.47 377.971 350.451 377.873 350.451 377.795C350.451 377.629 350.47 377.497 350.509 377.399C350.802 377.37 351.037 377.346 351.212 377.326C351.388 377.307 351.627 377.272 351.93 377.224C352.243 377.175 352.492 377.121 352.677 377.062C352.873 376.994 353.073 376.911 353.278 376.813C353.483 376.716 353.634 376.599 353.732 376.462C353.839 376.325 353.893 376.169 353.893 375.993C354.01 372.937 354.069 369.855 354.069 366.75C354.069 363.586 354.02 360.856 353.922 358.562C353.913 358.308 353.8 358.093 353.585 357.917C353.371 357.731 353.058 357.59 352.648 357.492C352.248 357.395 351.906 357.326 351.623 357.287C351.349 357.238 350.988 357.194 350.539 357.155C350.5 356.979 350.48 356.857 350.48 356.789C350.48 356.691 350.5 356.584 350.539 356.467ZM362.09 356.467C363.691 356.545 365.713 356.584 368.154 356.584C375.059 365.236 378.769 369.846 379.287 370.412C379.805 370.969 380.063 371.247 380.063 371.247H380.181C380.22 369.372 380.239 367.863 380.239 366.721C380.239 364.465 380.19 361.813 380.093 358.767C380.073 357.888 378.989 357.351 376.841 357.155C376.802 356.94 376.782 356.809 376.782 356.76C376.782 356.682 376.802 356.584 376.841 356.467C378.413 356.525 379.805 356.555 381.016 356.555C381.797 356.555 383.105 356.525 384.941 356.467C384.98 356.584 385 356.682 385 356.76C385 356.916 384.98 357.048 384.941 357.155C382.803 357.351 381.724 357.888 381.704 358.767C381.587 361.823 381.528 364.836 381.528 367.805C381.528 372.346 381.577 375.764 381.675 378.059L381.411 378.088L366.85 360.173H366.704C366.645 362.702 366.616 365.256 366.616 367.834C366.616 370.1 366.665 372.746 366.763 375.773C366.782 376.662 367.861 377.204 370 377.399C370.049 377.565 370.073 377.697 370.073 377.795C370.073 377.893 370.049 377.99 370 378.088C368.447 378.029 367.06 378 365.84 378C365.059 378 363.75 378.029 361.914 378.088C361.865 377.99 361.841 377.893 361.841 377.795C361.841 377.629 361.865 377.497 361.914 377.399C364.072 377.194 365.151 376.652 365.151 375.773C365.268 372.727 365.327 369.719 365.327 366.75C365.327 363.527 365.288 360.729 365.21 358.356C364.39 357.644 363.35 357.243 362.09 357.155C362.031 357.028 362.002 356.916 362.002 356.818C362.002 356.672 362.031 356.555 362.09 356.467ZM387.323 356.467C388.387 356.506 389.715 356.535 391.307 356.555C392.899 356.574 394.769 356.584 396.917 356.584C399.066 356.584 400.936 356.574 402.528 356.555C404.129 356.535 405.467 356.506 406.541 356.467C406.6 356.887 406.673 357.292 406.761 357.683C406.849 358.063 406.995 358.488 407.201 358.957L407.64 359.953L408.709 362.033C408.641 362.189 408.47 362.321 408.197 362.429C407.865 361.813 407.459 361.228 406.981 360.671C406.502 360.114 405.892 359.611 405.15 359.162C404.417 358.713 403.519 358.337 402.454 358.034C401.4 357.731 400.125 357.526 398.631 357.419C398.582 358.64 398.543 360.021 398.514 361.564C398.494 363.098 398.485 364.807 398.485 366.691C398.485 368.586 398.494 370.305 398.514 371.848C398.543 373.391 398.582 374.772 398.631 375.993C398.641 376.228 398.734 376.428 398.909 376.594C399.085 376.75 399.325 376.882 399.627 376.989C399.94 377.097 400.296 377.185 400.697 377.253C401.107 377.312 401.546 377.36 402.015 377.399C402.054 377.565 402.074 377.697 402.074 377.795C402.074 377.883 402.054 377.98 402.015 378.088C400.374 378.029 398.675 378 396.917 378C395.169 378 393.47 378.029 391.82 378.088C391.781 377.98 391.761 377.883 391.761 377.795C391.761 377.697 391.781 377.565 391.82 377.399L392.523 377.326C392.777 377.297 393.06 377.258 393.372 377.209C393.685 377.15 393.973 377.072 394.237 376.975C394.51 376.877 394.74 376.755 394.925 376.608C395.111 376.462 395.203 376.281 395.203 376.066V375.993C395.252 374.206 395.291 372.541 395.321 370.998C395.35 369.455 395.365 368.02 395.365 366.691C395.365 365.373 395.35 363.947 395.321 362.414C395.291 360.871 395.252 359.206 395.203 357.419C393.797 357.497 392.572 357.688 391.527 357.99C390.492 358.283 389.593 358.654 388.831 359.104C388.07 359.543 387.435 360.051 386.927 360.627C386.419 361.193 385.999 361.794 385.667 362.429C385.394 362.321 385.223 362.189 385.155 362.033L385.814 360.788L386.121 360.158C386.248 359.895 386.375 359.626 386.502 359.353C386.629 359.079 386.746 358.796 386.854 358.503C386.971 358.2 387.069 357.883 387.147 357.551C387.225 357.209 387.284 356.848 387.323 356.467ZM409.098 356.467C411.286 356.545 412.985 356.584 414.196 356.584C415.407 356.584 417.106 356.545 419.294 356.467C419.333 356.623 419.352 356.73 419.352 356.789C419.352 356.896 419.333 357.019 419.294 357.155C418.844 357.194 418.478 357.238 418.195 357.287C417.922 357.326 417.58 357.395 417.17 357.492C416.769 357.59 416.462 357.731 416.247 357.917C416.032 358.093 415.92 358.308 415.91 358.562C415.783 361.882 415.719 364.973 415.719 367.834C415.719 369.924 415.773 372.644 415.881 375.993C415.89 376.247 416.003 376.467 416.217 376.652C416.432 376.828 416.74 376.965 417.14 377.062C417.55 377.16 417.892 377.233 418.166 377.282C418.449 377.321 418.815 377.36 419.264 377.399C419.303 377.517 419.323 377.648 419.323 377.795C419.323 377.873 419.303 377.971 419.264 378.088C417.604 378.029 415.905 378 414.167 378C412.409 378 410.71 378.029 409.069 378.088C409.03 377.971 409.01 377.873 409.01 377.795C409.01 377.629 409.03 377.497 409.069 377.399C409.362 377.37 409.596 377.346 409.772 377.326C409.948 377.307 410.187 377.272 410.49 377.224C410.802 377.175 411.051 377.121 411.237 377.062C411.432 376.994 411.633 376.911 411.838 376.813C412.043 376.716 412.194 376.599 412.292 376.462C412.399 376.325 412.453 376.169 412.453 375.993C412.57 372.937 412.629 369.855 412.629 366.75C412.629 363.586 412.58 360.856 412.482 358.562C412.472 358.308 412.36 358.093 412.145 357.917C411.93 357.731 411.618 357.59 411.208 357.492C410.807 357.395 410.466 357.326 410.182 357.287C409.909 357.238 409.548 357.194 409.098 357.155C409.059 356.979 409.04 356.857 409.04 356.789C409.04 356.691 409.059 356.584 409.098 356.467ZM420.65 356.467C422.251 356.545 424.273 356.584 426.714 356.584C433.618 365.236 437.329 369.846 437.847 370.412C438.364 370.969 438.623 371.247 438.623 371.247H438.74C438.779 369.372 438.799 367.863 438.799 366.721C438.799 364.465 438.75 361.813 438.652 358.767C438.633 357.888 437.549 357.351 435.4 357.155C435.361 356.94 435.342 356.809 435.342 356.76C435.342 356.682 435.361 356.584 435.4 356.467C436.973 356.525 438.364 356.555 439.575 356.555C440.357 356.555 441.665 356.525 443.501 356.467C443.54 356.584 443.56 356.682 443.56 356.76C443.56 356.916 443.54 357.048 443.501 357.155C441.362 357.351 440.283 357.888 440.264 358.767C440.147 361.823 440.088 364.836 440.088 367.805C440.088 372.346 440.137 375.764 440.234 378.059L439.971 378.088L425.41 360.173H425.264C425.205 362.702 425.176 365.256 425.176 367.834C425.176 370.1 425.225 372.746 425.322 375.773C425.342 376.662 426.421 377.204 428.56 377.399C428.608 377.565 428.633 377.697 428.633 377.795C428.633 377.893 428.608 377.99 428.56 378.088C427.007 378.029 425.62 378 424.4 378C423.618 378 422.31 378.029 420.474 378.088C420.425 377.99 420.4 377.893 420.4 377.795C420.4 377.629 420.425 377.497 420.474 377.399C422.632 377.194 423.711 376.652 423.711 375.773C423.828 372.727 423.887 369.719 423.887 366.75C423.887 363.527 423.848 360.729 423.77 358.356C422.949 357.644 421.909 357.243 420.65 357.155C420.591 357.028 420.562 356.916 420.562 356.818C420.562 356.672 420.591 356.555 420.65 356.467ZM465.204 363.117C464.891 362.424 464.583 361.818 464.281 361.301C463.978 360.773 463.583 360.227 463.094 359.66C462.606 359.094 462.083 358.63 461.527 358.269C460.97 357.907 460.287 357.609 459.476 357.375C458.666 357.141 457.772 357.023 456.795 357.023C455.741 357.023 454.784 357.238 453.924 357.668C453.065 358.098 452.357 358.659 451.8 359.353C451.253 360.046 450.79 360.852 450.409 361.77C450.038 362.678 449.774 363.596 449.618 364.523C449.461 365.441 449.383 366.374 449.383 367.321C449.383 368.259 449.466 369.191 449.632 370.119C449.798 371.037 450.072 371.95 450.453 372.858C450.843 373.767 451.322 374.562 451.888 375.246C452.455 375.93 453.167 376.486 454.027 376.916C454.896 377.336 455.858 377.546 456.913 377.546C459.061 377.546 460.555 377.067 461.395 376.11V370.163C461.395 369.958 461.312 369.777 461.146 369.621C460.98 369.455 460.79 369.328 460.575 369.24C460.36 369.152 460.072 369.074 459.71 369.006C459.359 368.928 459.071 368.874 458.846 368.845C458.622 368.815 458.338 368.786 457.997 368.757C457.958 368.601 457.938 368.483 457.938 368.405C457.938 368.337 457.958 368.225 457.997 368.068C460.204 368.146 461.903 368.186 463.094 368.186C464.305 368.186 466.004 368.146 468.192 368.068C468.241 368.264 468.265 368.376 468.265 368.405C468.265 368.444 468.241 368.562 468.192 368.757C467.85 368.786 467.567 368.815 467.342 368.845C467.118 368.874 466.825 368.928 466.463 369.006C466.112 369.074 465.829 369.152 465.614 369.24C465.409 369.328 465.223 369.455 465.057 369.621C464.891 369.777 464.808 369.958 464.808 370.163V372.331C464.808 374.187 465.028 375.705 465.467 376.887C463.856 377.482 462.425 377.917 461.175 378.19C459.925 378.464 458.504 378.601 456.913 378.601C455.965 378.601 455.013 378.503 454.056 378.308C453.099 378.112 452.093 377.746 451.039 377.209C449.994 376.672 449.071 375.998 448.27 375.188C447.479 374.377 446.82 373.293 446.292 371.936C445.775 370.578 445.516 369.04 445.516 367.321C445.516 366.081 445.648 364.934 445.912 363.879C446.185 362.814 446.546 361.901 446.996 361.14C447.445 360.378 447.977 359.694 448.592 359.089C449.217 358.483 449.867 357.99 450.541 357.609C451.214 357.229 451.922 356.916 452.665 356.672C453.417 356.418 454.129 356.242 454.803 356.145C455.477 356.037 456.141 355.983 456.795 355.983C457.889 355.983 458.929 356.052 459.916 356.188C460.912 356.315 461.903 356.477 462.889 356.672C463.875 356.857 464.657 356.984 465.233 357.053C465.086 357.492 465.013 358.112 465.013 358.913C465.013 360.241 465.252 361.535 465.731 362.795C465.672 362.971 465.497 363.078 465.204 363.117Z" fill="black"/>
<path d="M141 394C140.448 394 140 394.448 140 395C140 395.552 140.448 396 141 396V394ZM141 396H161V394H141V396Z" fill="black"/>
<path d="M174.555 399V390.524H177.545C178.143 390.524 178.685 390.602 179.17 390.758C179.656 390.914 180.041 391.183 180.327 391.564C180.622 391.945 180.769 392.465 180.769 393.124C180.769 393.757 180.622 394.277 180.327 394.684C180.041 395.083 179.656 395.382 179.17 395.581C178.685 395.772 178.143 395.867 177.545 395.867H176.336V399H174.555ZM179.157 399L177.22 395.386L178.468 394.268L181.159 399H179.157ZM176.336 394.437H177.389C177.918 394.437 178.321 394.329 178.598 394.112C178.876 393.887 179.014 393.557 179.014 393.124C179.014 392.682 178.876 392.374 178.598 392.201C178.321 392.028 177.918 391.941 177.389 391.941H176.336V394.437ZM183.882 399.156C183.501 399.156 183.167 399.074 182.881 398.909C182.595 398.736 182.37 398.506 182.205 398.22C182.049 397.925 181.971 397.596 181.971 397.232C181.971 396.556 182.261 396.027 182.842 395.646C183.423 395.265 184.359 395.005 185.65 394.866C185.641 394.667 185.598 394.489 185.52 394.333C185.451 394.177 185.338 394.056 185.182 393.969C185.035 393.882 184.835 393.839 184.584 393.839C184.298 393.839 184.012 393.895 183.726 394.008C183.449 394.112 183.158 394.255 182.855 394.437L182.205 393.254C182.465 393.098 182.742 392.955 183.037 392.825C183.332 392.695 183.635 392.595 183.947 392.526C184.259 392.448 184.584 392.409 184.922 392.409C185.468 392.409 185.927 392.517 186.3 392.734C186.673 392.951 186.954 393.271 187.145 393.696C187.336 394.112 187.431 394.641 187.431 395.282V399H185.975L185.845 398.324H185.793C185.524 398.567 185.23 398.766 184.909 398.922C184.597 399.078 184.255 399.156 183.882 399.156ZM184.48 397.778C184.714 397.778 184.918 397.726 185.091 397.622C185.273 397.509 185.459 397.362 185.65 397.18V395.958C185.156 396.019 184.766 396.105 184.48 396.218C184.194 396.322 183.99 396.452 183.869 396.608C183.748 396.755 183.687 396.916 183.687 397.089C183.687 397.323 183.761 397.496 183.908 397.609C184.055 397.722 184.246 397.778 184.48 397.778ZM189.1 399V392.565H190.556L190.686 393.696H190.738C190.972 393.271 191.25 392.951 191.57 392.734C191.9 392.517 192.229 392.409 192.558 392.409C192.732 392.409 192.879 392.422 193 392.448C193.122 392.465 193.226 392.496 193.312 392.539L193.013 394.086C192.901 394.051 192.792 394.025 192.688 394.008C192.593 393.991 192.476 393.982 192.337 393.982C192.086 393.982 191.826 394.073 191.557 394.255C191.289 394.437 191.063 394.758 190.881 395.217V399H189.1ZM197.013 399.156C196.406 399.156 195.856 399.022 195.362 398.753C194.877 398.484 194.491 398.103 194.205 397.609C193.919 397.106 193.776 396.5 193.776 395.789C193.776 395.096 193.919 394.498 194.205 393.995C194.5 393.492 194.877 393.102 195.336 392.825C195.795 392.548 196.281 392.409 196.792 392.409C197.39 392.409 197.888 392.543 198.287 392.812C198.694 393.081 198.998 393.449 199.197 393.917C199.405 394.376 199.509 394.901 199.509 395.49C199.509 395.646 199.5 395.802 199.483 395.958C199.466 396.105 199.448 396.218 199.431 396.296H195.18L195.167 395.113H197.975C197.975 394.714 197.884 394.394 197.702 394.151C197.52 393.9 197.23 393.774 196.831 393.774C196.597 393.774 196.372 393.839 196.155 393.969C195.938 394.099 195.761 394.316 195.622 394.619C195.483 394.914 195.414 395.304 195.414 395.789C195.414 396.283 195.501 396.677 195.674 396.972C195.856 397.258 196.086 397.466 196.363 397.596C196.64 397.726 196.935 397.791 197.247 397.791C197.507 397.791 197.75 397.756 197.975 397.687C198.209 397.609 198.443 397.501 198.677 397.362L199.262 398.441C198.941 398.658 198.582 398.831 198.183 398.961C197.793 399.091 197.403 399.156 197.013 399.156ZM207.008 399.156C206.254 399.156 205.587 398.978 205.006 398.623C204.434 398.268 203.988 397.761 203.667 397.102C203.347 396.435 203.186 395.642 203.186 394.723C203.186 393.804 203.347 393.02 203.667 392.37C203.988 391.72 204.434 391.226 205.006 390.888C205.587 390.541 206.254 390.368 207.008 390.368C207.762 390.368 208.425 390.541 208.997 390.888C209.569 391.226 210.016 391.72 210.336 392.37C210.657 393.02 210.817 393.804 210.817 394.723C210.817 395.642 210.657 396.435 210.336 397.102C210.016 397.761 209.569 398.268 208.997 398.623C208.425 398.978 207.762 399.156 207.008 399.156ZM209.764 401.327C208.854 401.327 208.087 401.102 207.463 400.651C206.848 400.2 206.402 399.628 206.124 398.935L207.944 398.766C208.048 399.035 208.204 399.251 208.412 399.416C208.629 399.581 208.872 399.702 209.14 399.78C209.409 399.858 209.686 399.897 209.972 399.897C210.154 399.897 210.323 399.88 210.479 399.845C210.635 399.819 210.778 399.789 210.908 399.754L211.22 401.067C211.073 401.136 210.874 401.197 210.622 401.249C210.371 401.301 210.085 401.327 209.764 401.327ZM207.008 397.7C207.407 397.7 207.754 397.583 208.048 397.349C208.352 397.106 208.581 396.764 208.737 396.322C208.902 395.88 208.984 395.347 208.984 394.723C208.984 394.134 208.902 393.631 208.737 393.215C208.581 392.79 208.352 392.465 208.048 392.24C207.754 392.015 207.407 391.902 207.008 391.902C206.601 391.902 206.246 392.015 205.942 392.24C205.648 392.465 205.418 392.79 205.253 393.215C205.097 393.631 205.019 394.134 205.019 394.723C205.019 395.347 205.097 395.88 205.253 396.322C205.418 396.764 205.648 397.106 205.942 397.349C206.246 397.583 206.601 397.7 207.008 397.7ZM214.219 399.156C213.534 399.156 213.031 398.926 212.711 398.467C212.39 398.008 212.23 397.375 212.23 396.569V392.565H214.011V396.348C214.011 396.833 214.08 397.171 214.219 397.362C214.366 397.544 214.587 397.635 214.882 397.635C215.133 397.635 215.35 397.579 215.532 397.466C215.714 397.345 215.904 397.145 216.104 396.868V392.565H217.885V399H216.429L216.299 398.09H216.26C215.982 398.419 215.683 398.679 215.363 398.87C215.042 399.061 214.661 399.156 214.219 399.156ZM221.244 399.156C220.863 399.156 220.529 399.074 220.243 398.909C219.957 398.736 219.732 398.506 219.567 398.22C219.411 397.925 219.333 397.596 219.333 397.232C219.333 396.556 219.624 396.027 220.204 395.646C220.785 395.265 221.721 395.005 223.012 394.866C223.004 394.667 222.96 394.489 222.882 394.333C222.813 394.177 222.7 394.056 222.544 393.969C222.397 393.882 222.198 393.839 221.946 393.839C221.66 393.839 221.374 393.895 221.088 394.008C220.811 394.112 220.521 394.255 220.217 394.437L219.567 393.254C219.827 393.098 220.105 392.955 220.399 392.825C220.694 392.695 220.997 392.595 221.309 392.526C221.621 392.448 221.946 392.409 222.284 392.409C222.83 392.409 223.29 392.517 223.662 392.734C224.035 392.951 224.317 393.271 224.507 393.696C224.698 394.112 224.793 394.641 224.793 395.282V399H223.337L223.207 398.324H223.155C222.887 398.567 222.592 398.766 222.271 398.922C221.959 399.078 221.617 399.156 221.244 399.156ZM221.842 397.778C222.076 397.778 222.28 397.726 222.453 397.622C222.635 397.509 222.822 397.362 223.012 397.18V395.958C222.518 396.019 222.128 396.105 221.842 396.218C221.556 396.322 221.353 396.452 221.231 396.608C221.11 396.755 221.049 396.916 221.049 397.089C221.049 397.323 221.123 397.496 221.27 397.609C221.418 397.722 221.608 397.778 221.842 397.778ZM228.127 399.156C227.719 399.156 227.394 399.074 227.152 398.909C226.909 398.736 226.731 398.497 226.619 398.194C226.515 397.891 226.463 397.531 226.463 397.115V389.874H228.244V397.193C228.244 397.384 228.278 397.518 228.348 397.596C228.426 397.674 228.504 397.713 228.582 397.713C228.625 397.713 228.66 397.713 228.686 397.713C228.72 397.704 228.764 397.696 228.816 397.687L229.037 399C228.933 399.043 228.807 399.078 228.66 399.104C228.512 399.139 228.335 399.156 228.127 399.156ZM230.119 399V392.565H231.9V399H230.119ZM231.016 391.577C230.73 391.577 230.492 391.486 230.301 391.304C230.11 391.122 230.015 390.892 230.015 390.615C230.015 390.338 230.11 390.112 230.301 389.939C230.492 389.757 230.73 389.666 231.016 389.666C231.311 389.666 231.549 389.757 231.731 389.939C231.922 390.112 232.017 390.338 232.017 390.615C232.017 390.892 231.922 391.122 231.731 391.304C231.549 391.486 231.311 391.577 231.016 391.577ZM236.079 399.156C235.299 399.156 234.74 398.931 234.402 398.48C234.073 398.029 233.908 397.44 233.908 396.712V393.969H233.024V392.643L234.012 392.565L234.22 390.849H235.689V392.565H237.262V393.969H235.689V396.699C235.689 397.063 235.763 397.332 235.91 397.505C236.066 397.67 236.278 397.752 236.547 397.752C236.66 397.752 236.772 397.739 236.885 397.713C236.998 397.687 237.097 397.657 237.184 397.622L237.47 398.922C237.297 398.974 237.093 399.026 236.859 399.078C236.625 399.13 236.365 399.156 236.079 399.156ZM239.186 401.548C238.995 401.548 238.83 401.535 238.692 401.509C238.553 401.483 238.419 401.453 238.289 401.418L238.614 400.066C238.674 400.075 238.744 400.088 238.822 400.105C238.908 400.131 238.986 400.144 239.056 400.144C239.376 400.144 239.628 400.057 239.81 399.884C240 399.711 240.139 399.49 240.226 399.221L240.33 398.857L237.834 392.565H239.628L240.603 395.464C240.698 395.75 240.789 396.045 240.876 396.348C240.962 396.651 241.049 396.963 241.136 397.284H241.188C241.266 396.981 241.339 396.677 241.409 396.374C241.487 396.062 241.565 395.759 241.643 395.464L242.475 392.565H244.191L241.929 399.143C241.729 399.654 241.513 400.088 241.279 400.443C241.045 400.807 240.759 401.08 240.421 401.262C240.083 401.453 239.671 401.548 239.186 401.548ZM249.415 399.156C249.034 399.156 248.7 399.074 248.414 398.909C248.128 398.736 247.903 398.506 247.738 398.22C247.582 397.925 247.504 397.596 247.504 397.232C247.504 396.556 247.795 396.027 248.375 395.646C248.956 395.265 249.892 395.005 251.183 394.866C251.175 394.667 251.131 394.489 251.053 394.333C250.984 394.177 250.871 394.056 250.715 393.969C250.568 393.882 250.369 393.839 250.117 393.839C249.831 393.839 249.545 393.895 249.259 394.008C248.982 394.112 248.692 394.255 248.388 394.437L247.738 393.254C247.998 393.098 248.276 392.955 248.57 392.825C248.865 392.695 249.168 392.595 249.48 392.526C249.792 392.448 250.117 392.409 250.455 392.409C251.001 392.409 251.461 392.517 251.833 392.734C252.206 392.951 252.488 393.271 252.678 393.696C252.869 394.112 252.964 394.641 252.964 395.282V399H251.508L251.378 398.324H251.326C251.058 398.567 250.763 398.766 250.442 398.922C250.13 399.078 249.788 399.156 249.415 399.156ZM250.013 397.778C250.247 397.778 250.451 397.726 250.624 397.622C250.806 397.509 250.993 397.362 251.183 397.18V395.958C250.689 396.019 250.299 396.105 250.013 396.218C249.727 396.322 249.524 396.452 249.402 396.608C249.281 396.755 249.22 396.916 249.22 397.089C249.22 397.323 249.294 397.496 249.441 397.609C249.589 397.722 249.779 397.778 250.013 397.778ZM254.634 399V392.565H256.09L256.22 393.397H256.272C256.549 393.128 256.852 392.899 257.182 392.708C257.52 392.509 257.91 392.409 258.352 392.409C259.045 392.409 259.548 392.639 259.86 393.098C260.18 393.557 260.341 394.19 260.341 394.996V399H258.56V395.23C258.56 394.745 258.49 394.407 258.352 394.216C258.213 394.025 257.996 393.93 257.702 393.93C257.442 393.93 257.221 393.991 257.039 394.112C256.857 394.225 256.649 394.394 256.415 394.619V399H254.634ZM264.31 399.156C263.513 399.156 262.872 398.857 262.386 398.259C261.91 397.661 261.671 396.838 261.671 395.789C261.671 395.087 261.797 394.485 262.048 393.982C262.308 393.479 262.642 393.094 263.049 392.825C263.465 392.548 263.903 392.409 264.362 392.409C264.726 392.409 265.03 392.47 265.272 392.591C265.515 392.712 265.749 392.881 265.974 393.098L265.909 392.097V389.874H267.69V399H266.234L266.104 398.35H266.052C265.827 398.575 265.558 398.766 265.246 398.922C264.943 399.078 264.631 399.156 264.31 399.156ZM264.765 397.7C264.991 397.7 265.194 397.652 265.376 397.557C265.558 397.462 265.736 397.301 265.909 397.076V394.32C265.727 394.155 265.537 394.043 265.337 393.982C265.147 393.913 264.956 393.878 264.765 393.878C264.54 393.878 264.332 393.947 264.141 394.086C263.951 394.225 263.795 394.437 263.673 394.723C263.561 395 263.504 395.347 263.504 395.763C263.504 396.413 263.613 396.898 263.829 397.219C264.055 397.54 264.367 397.7 264.765 397.7ZM275.692 399.156C274.973 399.156 274.318 398.991 273.729 398.662C273.14 398.333 272.667 397.843 272.312 397.193C271.957 396.543 271.779 395.746 271.779 394.801C271.779 394.099 271.883 393.475 272.091 392.929C272.299 392.383 272.585 391.919 272.949 391.538C273.322 391.148 273.746 390.858 274.223 390.667C274.708 390.468 275.215 390.368 275.744 390.368C276.29 390.368 276.775 390.476 277.2 390.693C277.633 390.91 277.989 391.165 278.266 391.46L277.317 392.604C277.1 392.396 276.871 392.227 276.628 392.097C276.385 391.967 276.104 391.902 275.783 391.902C275.376 391.902 275.007 392.019 274.678 392.253C274.349 392.478 274.089 392.803 273.898 393.228C273.707 393.653 273.612 394.16 273.612 394.749C273.612 395.347 273.699 395.863 273.872 396.296C274.045 396.721 274.292 397.046 274.613 397.271C274.942 397.496 275.324 397.609 275.757 397.609C276.112 397.609 276.429 397.531 276.706 397.375C276.992 397.219 277.243 397.024 277.46 396.79L278.409 397.908C278.062 398.315 277.659 398.627 277.2 398.844C276.741 399.052 276.238 399.156 275.692 399.156ZM279.58 399V392.565H281.036L281.166 393.696H281.218C281.452 393.271 281.729 392.951 282.05 392.734C282.379 392.517 282.709 392.409 283.038 392.409C283.211 392.409 283.359 392.422 283.48 392.448C283.601 392.465 283.705 392.496 283.792 392.539L283.493 394.086C283.38 394.051 283.272 394.025 283.168 394.008C283.073 393.991 282.956 393.982 282.817 393.982C282.566 393.982 282.306 394.073 282.037 394.255C281.768 394.437 281.543 394.758 281.361 395.217V399H279.58ZM287.492 399.156C286.886 399.156 286.335 399.022 285.841 398.753C285.356 398.484 284.97 398.103 284.684 397.609C284.398 397.106 284.255 396.5 284.255 395.789C284.255 395.096 284.398 394.498 284.684 393.995C284.979 393.492 285.356 393.102 285.815 392.825C286.275 392.548 286.76 392.409 287.271 392.409C287.869 392.409 288.368 392.543 288.766 392.812C289.174 393.081 289.477 393.449 289.676 393.917C289.884 394.376 289.988 394.901 289.988 395.49C289.988 395.646 289.98 395.802 289.962 395.958C289.945 396.105 289.928 396.218 289.91 396.296H285.659L285.646 395.113H288.454C288.454 394.714 288.363 394.394 288.181 394.151C287.999 393.9 287.709 393.774 287.31 393.774C287.076 393.774 286.851 393.839 286.634 393.969C286.418 394.099 286.24 394.316 286.101 394.619C285.963 394.914 285.893 395.304 285.893 395.789C285.893 396.283 285.98 396.677 286.153 396.972C286.335 397.258 286.565 397.466 286.842 397.596C287.12 397.726 287.414 397.791 287.726 397.791C287.986 397.791 288.229 397.756 288.454 397.687C288.688 397.609 288.922 397.501 289.156 397.362L289.741 398.441C289.421 398.658 289.061 398.831 288.662 398.961C288.272 399.091 287.882 399.156 287.492 399.156ZM292.922 399.156C292.541 399.156 292.207 399.074 291.921 398.909C291.635 398.736 291.41 398.506 291.245 398.22C291.089 397.925 291.011 397.596 291.011 397.232C291.011 396.556 291.301 396.027 291.882 395.646C292.463 395.265 293.399 395.005 294.69 394.866C294.681 394.667 294.638 394.489 294.56 394.333C294.491 394.177 294.378 394.056 294.222 393.969C294.075 393.882 293.875 393.839 293.624 393.839C293.338 393.839 293.052 393.895 292.766 394.008C292.489 394.112 292.198 394.255 291.895 394.437L291.245 393.254C291.505 393.098 291.782 392.955 292.077 392.825C292.372 392.695 292.675 392.595 292.987 392.526C293.299 392.448 293.624 392.409 293.962 392.409C294.508 392.409 294.967 392.517 295.34 392.734C295.713 392.951 295.994 393.271 296.185 393.696C296.376 394.112 296.471 394.641 296.471 395.282V399H295.015L294.885 398.324H294.833C294.564 398.567 294.27 398.766 293.949 398.922C293.637 399.078 293.295 399.156 292.922 399.156ZM293.52 397.778C293.754 397.778 293.958 397.726 294.131 397.622C294.313 397.509 294.499 397.362 294.69 397.18V395.958C294.196 396.019 293.806 396.105 293.52 396.218C293.234 396.322 293.03 396.452 292.909 396.608C292.788 396.755 292.727 396.916 292.727 397.089C292.727 397.323 292.801 397.496 292.948 397.609C293.095 397.722 293.286 397.778 293.52 397.778ZM300.559 399.156C299.779 399.156 299.22 398.931 298.882 398.48C298.552 398.029 298.388 397.44 298.388 396.712V393.969H297.504V392.643L298.492 392.565L298.7 390.849H300.169V392.565H301.742V393.969H300.169V396.699C300.169 397.063 300.242 397.332 300.39 397.505C300.546 397.67 300.758 397.752 301.027 397.752C301.139 397.752 301.252 397.739 301.365 397.713C301.477 397.687 301.577 397.657 301.664 397.622L301.95 398.922C301.776 398.974 301.573 399.026 301.339 399.078C301.105 399.13 300.845 399.156 300.559 399.156ZM303.028 399V392.565H304.809V399H303.028ZM303.925 391.577C303.639 391.577 303.401 391.486 303.21 391.304C303.02 391.122 302.924 390.892 302.924 390.615C302.924 390.338 303.02 390.112 303.21 389.939C303.401 389.757 303.639 389.666 303.925 389.666C304.22 389.666 304.458 389.757 304.64 389.939C304.831 390.112 304.926 390.338 304.926 390.615C304.926 390.892 304.831 391.122 304.64 391.304C304.458 391.486 304.22 391.577 303.925 391.577ZM308.039 399L305.855 392.565H307.649L308.546 395.698C308.624 396.019 308.707 396.344 308.793 396.673C308.88 397.002 308.967 397.332 309.053 397.661H309.105C309.192 397.332 309.279 397.002 309.365 396.673C309.452 396.344 309.539 396.019 309.625 395.698L310.509 392.565H312.225L310.093 399H308.039ZM313.248 399V392.565H315.029V399H313.248ZM314.145 391.577C313.859 391.577 313.621 391.486 313.43 391.304C313.239 391.122 313.144 390.892 313.144 390.615C313.144 390.338 313.239 390.112 313.43 389.939C313.621 389.757 313.859 389.666 314.145 389.666C314.44 389.666 314.678 389.757 314.86 389.939C315.051 390.112 315.146 390.338 315.146 390.615C315.146 390.892 315.051 391.122 314.86 391.304C314.678 391.486 314.44 391.577 314.145 391.577ZM319.208 399.156C318.428 399.156 317.869 398.931 317.531 398.48C317.202 398.029 317.037 397.44 317.037 396.712V393.969H316.153V392.643L317.141 392.565L317.349 390.849H318.818V392.565H320.391V393.969H318.818V396.699C318.818 397.063 318.892 397.332 319.039 397.505C319.195 397.67 319.407 397.752 319.676 397.752C319.789 397.752 319.901 397.739 320.014 397.713C320.127 397.687 320.226 397.657 320.313 397.622L320.599 398.922C320.426 398.974 320.222 399.026 319.988 399.078C319.754 399.13 319.494 399.156 319.208 399.156ZM322.315 401.548C322.124 401.548 321.959 401.535 321.821 401.509C321.682 401.483 321.548 401.453 321.418 401.418L321.743 400.066C321.803 400.075 321.873 400.088 321.951 400.105C322.037 400.131 322.115 400.144 322.185 400.144C322.505 400.144 322.757 400.057 322.939 399.884C323.129 399.711 323.268 399.49 323.355 399.221L323.459 398.857L320.963 392.565H322.757L323.732 395.464C323.827 395.75 323.918 396.045 324.005 396.348C324.091 396.651 324.178 396.963 324.265 397.284H324.317C324.395 396.981 324.468 396.677 324.538 396.374C324.616 396.062 324.694 395.759 324.772 395.464L325.604 392.565H327.32L325.058 399.143C324.858 399.654 324.642 400.088 324.408 400.443C324.174 400.807 323.888 401.08 323.55 401.262C323.212 401.453 322.8 401.548 322.315 401.548Z" fill="black"/>
<path d="M360 396C360.552 396 361 395.552 361 395C361 394.448 360.552 394 360 394V396ZM340 396H360V394H340V396Z" fill="black"/>
<path d="M245 325C235.229 325.093 225.5 318.5 228.5 314C231.5 309.5 264 301.289 306.5 264.5C349 227.71 332.439 203.457 327.5 197.5C322.561 191.543 290.5 176 281 173.5C274.276 171.73 272.812 171.213 272.531 171.062C274.992 176.123 274 191 274 191C269 213 266 208.5 266 208.5C266 208.5 273.5 198 259 176C252.947 166.815 189.5 96.5 181.5 96.5C173.5 96.5 162.273 146.003 207.5 188C214.5 194.5 181.5 171 173.5 163.5C165.5 156 164 151 164 151C155.5 188 217 227 207.5 227C172 215.5 126 163.5 128.5 118C128.5 118 133 110.5 155.5 138C164.416 148.897 155.5 134.5 155.5 101.5L160 81.5C173.5 53 178 63 247 147.5C235.5 132 234 127.5 245 105C256 82.5 267.948 74.9156 287 71C305.301 66.8648 312.546 68.7347 323 75.5C324.31 87.5502 322.746 86.9907 327.5 96.5C332.254 106.009 337.5 105 340.5 105C343.5 105 337.5 108 337.5 108C337.5 108 312 98.5 301.5 93C291 87.5 290 81.5 290 81.5C262 98.5 251.5 118 254 127.5C260.224 151.154 279 158 299.5 166C400.5 200.5 318.5 268 318.5 268C272.5 305 234.5 312.5 239 317L245 325Z" fill="black"/>
<path d="M245 325C235.229 325.093 225.5 318.5 228.5 314C231.5 309.5 264 301.289 306.5 264.5C349 227.71 332.439 203.457 327.5 197.5C322.561 191.543 290.5 176 281 173.5C271.5 171 272.5 171 272.5 171C275 176 274 191 274 191C269 213 266 208.5 266 208.5C266 208.5 273.5 198 259 176C252.947 166.815 189.5 96.5 181.5 96.5C173.5 96.5 162.273 146.003 207.5 188C214.5 194.5 181.5 171 173.5 163.5C165.5 156 164 151 164 151C155.5 188 217 227 207.5 227C172 215.5 126 163.5 128.5 118C128.5 118 133 110.5 155.5 138C164.416 148.897 155.5 134.5 155.5 101.5L160 81.5C173.5 53 178 63 247 147.5C235.5 132 234 127.5 245 105C256 82.5 267.948 74.9156 287 71C305.301 66.8648 312.546 68.7347 323 75.5C324.31 87.5502 322.746 86.9907 327.5 96.5C332.254 106.009 337.5 105 340.5 105C343.5 105 337.5 108 337.5 108C337.5 108 312 98.5 301.5 93C291 87.5 290 81.5 290 81.5C262 98.5 251.5 118 254 127.5C260.224 151.154 279 158 299.5 166C400.5 200.5 318.5 268 318.5 268C272.5 305 234.5 312.5 239 317L245 325Z" stroke="black"/>
</svg>
