<svg width="500" height="500" viewBox="0 0 500 500" fill="none" xmlns="http://www.w3.org/2000/svg">
<g clip-path="url(#clip0_1_2)">
<rect width="500" height="500" fill="#ADDCFF"/>
<path d="M78.3848 250.5C78.3848 216.5 86.0514 186 101.385 159C116.718 131.667 137.551 110.333 163.885 95C190.551 79.6667 220.051 72 252.385 72C290.385 72 323.551 81.1667 351.885 99.5C380.218 117.833 400.885 143.833 413.885 177.5H359.385C349.718 156.5 335.718 140.333 317.385 129C299.385 117.667 277.718 112 252.385 112C228.051 112 206.218 117.667 186.885 129C167.551 140.333 152.385 156.5 141.385 177.5C130.385 198.167 124.885 222.5 124.885 250.5C124.885 278.167 130.385 302.5 141.385 323.5C152.385 344.167 167.551 360.167 186.885 371.5C206.218 382.833 228.051 388.5 252.385 388.5C277.718 388.5 299.385 383 317.385 372C335.718 360.667 349.718 344.5 359.385 323.5H413.885C400.885 356.833 380.218 382.667 351.885 401C323.551 419 290.385 428 252.385 428C220.051 428 190.551 420.5 163.885 405.5C137.551 390.167 116.718 369 101.385 342C86.0514 315 78.3848 284.5 78.3848 250.5Z" fill="black"/>
<path d="M213.064 259.4L217.299 245.47H223.669L216.739 265H209.354L202.424 245.47H208.829L213.064 259.4ZM224.999 255.2C224.999 253.193 225.372 251.432 226.119 249.915C226.889 248.398 227.927 247.232 229.234 246.415C230.54 245.598 231.999 245.19 233.609 245.19C234.985 245.19 236.187 245.47 237.214 246.03C238.264 246.59 239.069 247.325 239.629 248.235V245.47H245.614V265H239.629V262.235C239.045 263.145 238.229 263.88 237.179 264.44C236.152 265 234.95 265.28 233.574 265.28C231.987 265.28 230.54 264.872 229.234 264.055C227.927 263.215 226.889 262.037 226.119 260.52C225.372 258.98 224.999 257.207 224.999 255.2ZM239.629 255.235C239.629 253.742 239.209 252.563 238.369 251.7C237.552 250.837 236.549 250.405 235.359 250.405C234.169 250.405 233.154 250.837 232.314 251.7C231.497 252.54 231.089 253.707 231.089 255.2C231.089 256.693 231.497 257.883 232.314 258.77C233.154 259.633 234.169 260.065 235.359 260.065C236.549 260.065 237.552 259.633 238.369 258.77C239.209 257.907 239.629 256.728 239.629 255.235ZM255.928 239.1V265H249.943V239.1H255.928ZM259.076 255.2C259.076 253.193 259.449 251.432 260.196 249.915C260.966 248.398 262.004 247.232 263.311 246.415C264.617 245.598 266.076 245.19 267.686 245.19C268.969 245.19 270.136 245.458 271.186 245.995C272.259 246.532 273.099 247.255 273.706 248.165V239.1H279.691V265H273.706V262.2C273.146 263.133 272.341 263.88 271.291 264.44C270.264 265 269.062 265.28 267.686 265.28C266.076 265.28 264.617 264.872 263.311 264.055C262.004 263.215 260.966 262.037 260.196 260.52C259.449 258.98 259.076 257.207 259.076 255.2ZM273.706 255.235C273.706 253.742 273.286 252.563 272.446 251.7C271.629 250.837 270.626 250.405 269.436 250.405C268.246 250.405 267.231 250.837 266.391 251.7C265.574 252.54 265.166 253.707 265.166 255.2C265.166 256.693 265.574 257.883 266.391 258.77C267.231 259.633 268.246 260.065 269.436 260.065C270.626 260.065 271.629 259.633 272.446 258.77C273.286 257.907 273.706 256.728 273.706 255.235ZM302.431 254.92C302.431 255.48 302.396 256.063 302.326 256.67H288.781C288.874 257.883 289.259 258.817 289.936 259.47C290.636 260.1 291.487 260.415 292.491 260.415C293.984 260.415 295.022 259.785 295.606 258.525H301.976C301.649 259.808 301.054 260.963 300.191 261.99C299.351 263.017 298.289 263.822 297.006 264.405C295.722 264.988 294.287 265.28 292.701 265.28C290.787 265.28 289.084 264.872 287.591 264.055C286.097 263.238 284.931 262.072 284.091 260.555C283.251 259.038 282.831 257.265 282.831 255.235C282.831 253.205 283.239 251.432 284.056 249.915C284.896 248.398 286.062 247.232 287.556 246.415C289.049 245.598 290.764 245.19 292.701 245.19C294.591 245.19 296.271 245.587 297.741 246.38C299.211 247.173 300.354 248.305 301.171 249.775C302.011 251.245 302.431 252.96 302.431 254.92ZM296.306 253.345C296.306 252.318 295.956 251.502 295.256 250.895C294.556 250.288 293.681 249.985 292.631 249.985C291.627 249.985 290.776 250.277 290.076 250.86C289.399 251.443 288.979 252.272 288.816 253.345H296.306ZM311.188 260.065H319.658V265H304.503V260.24L312.623 250.405H304.573V245.47H319.483V250.23L311.188 260.065ZM325.751 265.28C324.701 265.28 323.838 264.977 323.161 264.37C322.508 263.74 322.181 262.97 322.181 262.06C322.181 261.127 322.508 260.345 323.161 259.715C323.838 259.085 324.701 258.77 325.751 258.77C326.778 258.77 327.618 259.085 328.271 259.715C328.948 260.345 329.286 261.127 329.286 262.06C329.286 262.97 328.948 263.74 328.271 264.37C327.618 264.977 326.778 265.28 325.751 265.28ZM331.639 255.2C331.639 253.193 332.013 251.432 332.759 249.915C333.529 248.398 334.568 247.232 335.874 246.415C337.181 245.598 338.639 245.19 340.249 245.19C341.533 245.19 342.699 245.458 343.749 245.995C344.823 246.532 345.663 247.255 346.269 248.165V239.1H352.254V265H346.269V262.2C345.709 263.133 344.904 263.88 343.854 264.44C342.828 265 341.626 265.28 340.249 265.28C338.639 265.28 337.181 264.872 335.874 264.055C334.568 263.215 333.529 262.037 332.759 260.52C332.013 258.98 331.639 257.207 331.639 255.2ZM346.269 255.235C346.269 253.742 345.849 252.563 345.009 251.7C344.193 250.837 343.189 250.405 341.999 250.405C340.809 250.405 339.794 250.837 338.954 251.7C338.138 252.54 337.729 253.707 337.729 255.2C337.729 256.693 338.138 257.883 338.954 258.77C339.794 259.633 340.809 260.065 341.999 260.065C343.189 260.065 344.193 259.633 345.009 258.77C345.849 257.907 346.269 256.728 346.269 255.235ZM374.994 254.92C374.994 255.48 374.959 256.063 374.889 256.67H361.344C361.437 257.883 361.822 258.817 362.499 259.47C363.199 260.1 364.051 260.415 365.054 260.415C366.547 260.415 367.586 259.785 368.169 258.525H374.539C374.212 259.808 373.617 260.963 372.754 261.99C371.914 263.017 370.852 263.822 369.569 264.405C368.286 264.988 366.851 265.28 365.264 265.28C363.351 265.28 361.647 264.872 360.154 264.055C358.661 263.238 357.494 262.072 356.654 260.555C355.814 259.038 355.394 257.265 355.394 255.235C355.394 253.205 355.802 251.432 356.619 249.915C357.459 248.398 358.626 247.232 360.119 246.415C361.612 245.598 363.327 245.19 365.264 245.19C367.154 245.19 368.834 245.587 370.304 246.38C371.774 247.173 372.917 248.305 373.734 249.775C374.574 251.245 374.994 252.96 374.994 254.92ZM368.869 253.345C368.869 252.318 368.519 251.502 367.819 250.895C367.119 250.288 366.244 249.985 365.194 249.985C364.191 249.985 363.339 250.277 362.639 250.86C361.962 251.443 361.542 252.272 361.379 253.345H368.869ZM386.936 259.4L391.171 245.47H397.541L390.611 265H383.226L376.296 245.47H382.701L386.936 259.4Z" fill="black"/>
</g>
<defs>
<clipPath id="clip0_1_2">
<rect width="500" height="500" fill="white"/>
</clipPath>
</defs>
</svg>
